<svg version="1.1" id="Layer_1" xmlns="http://www.w3.org/2000/svg" xmlns:xlink="http://www.w3.org/1999/xlink" x="0px" y="0px"
	 width="102px" height="44px" viewBox="0 0 1024 1024" enable-background="new 0 0 1024 1024" xml:space="preserve" preserveAspectRatio="none">
<path fill="#000000" opacity="1.000000" stroke="none" 
	d="
M222.080048,506.219025 
	C222.434814,505.611450 222.539734,505.256805 222.773132,505.041443 
	C230.792679,497.642578 228.961823,489.108826 227.600632,479.386444 
	C223.949463,453.307800 228.726990,428.933685 247.618423,408.910675 
	C253.195908,402.999084 259.698425,398.451904 267.229950,395.436066 
	C269.698151,394.447723 271.318237,392.889832 272.552856,390.528717 
	C280.190216,375.922821 291.693604,365.890289 307.822052,361.752319 
	C311.681427,360.762177 313.626892,358.855957 314.718536,355.049774 
	C317.637177,344.873169 323.508423,336.405731 331.190369,329.249268 
	C333.724640,326.888367 334.504211,324.360382 334.800049,320.986877 
	C336.004730,307.247589 337.415771,293.504364 340.208069,279.983459 
	C341.124969,275.543518 339.934204,273.424164 335.637573,272.453156 
	C316.483093,268.124268 297.344391,263.725128 278.210785,259.304626 
	C260.698303,255.258636 243.188461,251.200089 225.698944,247.056458 
	C214.125641,244.314514 208.960403,238.986343 208.685669,229.819778 
	C208.444260,221.764984 211.753876,215.969360 219.535034,213.095490 
	C228.577606,209.755722 237.918274,207.222763 247.130661,204.343185 
	C289.868011,190.984390 332.604095,177.621506 375.343781,164.270248 
	C419.986572,150.324509 464.648651,136.440262 509.258301,122.389374 
	C514.951843,120.596062 520.311890,120.810623 525.883362,122.560783 
	C564.797302,134.784744 603.695374,147.061478 642.668823,159.093445 
	C699.133240,176.525238 755.653564,193.775864 812.158997,211.074692 
	C821.034546,213.791885 825.939087,220.075760 825.941284,229.028214 
	C825.943237,236.888947 820.726562,243.717117 812.615417,246.401855 
	C811.196838,246.871384 809.733276,247.223816 808.270691,247.537689 
	C805.377136,248.158630 804.375122,249.820786 804.245178,252.840546 
	C803.832947,262.411346 805.874390,272.185852 802.020569,281.505188 
	C801.358765,283.105560 802.843445,283.899139 803.868530,284.675629 
	C816.090942,293.934174 820.416687,306.618103 820.259827,321.460297 
	C820.069641,339.457153 820.331848,357.459442 820.071899,375.454620 
	C819.971924,382.377655 820.054993,389.512299 815.560486,395.562561 
	C809.436401,403.806488 801.347107,407.270813 791.183777,405.757751 
	C789.204041,405.462982 787.260437,405.054535 785.252258,405.686920 
	C784.415100,407.603760 786.044312,408.360474 786.967285,409.382568 
	C804.232971,428.504486 809.197266,451.233612 806.593079,476.188568 
	C806.558594,476.519440 806.537354,476.859802 806.441589,477.174988 
	C803.241821,487.707794 805.570190,496.285980 811.586609,506.080170 
	C825.175293,528.201538 823.286743,552.156738 814.165466,575.736877 
	C812.610718,579.756165 811.008179,584.015625 808.355957,587.298218 
	C802.697815,594.301331 803.123657,601.490295 806.161194,609.247620 
	C808.199158,610.141785 809.947937,608.816711 811.720703,608.092224 
	C826.367493,602.105774 840.985291,596.048218 855.611877,590.012329 
	C856.381958,589.694458 857.143127,589.352417 857.923645,589.062622 
	C861.865906,587.598816 865.731018,587.101074 869.139771,590.294189 
	C872.438416,593.384216 871.985352,597.209656 870.922974,600.998352 
	C868.856079,608.369263 866.623169,615.693481 864.497986,623.048218 
	C861.679871,632.800842 859.005188,642.596680 856.037903,652.303284 
	C855.139954,655.240601 855.619568,657.245544 857.757812,659.442871 
	C866.715515,668.648132 876.596985,676.842651 885.982605,685.576843 
	C886.956238,686.482788 888.073914,687.233459 889.052185,688.135010 
	C895.811218,694.363892 894.416504,700.263184 885.595398,703.210022 
	C870.432434,708.275513 855.342957,713.567017 840.119446,718.441467 
	C835.664795,719.867859 834.981995,721.905823 836.360229,726.097046 
	C843.222961,746.966064 850.009521,767.862976 856.518188,788.844604 
	C860.906738,802.991699 857.659607,811.411743 845.130493,819.554993 
	C832.874817,827.520569 819.057251,832.122559 805.575684,837.395752 
	C756.128967,856.736267 705.207092,870.975159 653.067505,880.832764 
	C624.921997,886.154053 596.511780,889.518921 567.916748,891.419983 
	C553.952942,892.348328 540.000366,893.160095 526.003113,893.264038 
	C488.127380,893.545227 450.467316,890.953125 412.974731,885.503784 
	C341.062256,875.051636 271.786041,855.310059 204.937286,826.933044 
	C198.806885,824.330750 192.857315,821.294983 187.603531,817.087769 
	C179.424255,810.537781 176.725037,802.140747 179.628998,792.154236 
	C186.090515,769.933655 193.511047,748.016235 201.332413,726.245972 
	C203.020966,721.546082 201.854095,719.745178 197.466263,718.342346 
	C184.463257,714.184998 171.549179,709.749756 158.593979,705.442261 
	C155.908112,704.549255 153.145493,703.868713 150.503387,702.865967 
	C142.980438,700.010803 141.666611,694.204468 147.511154,688.738892 
	C156.758118,680.091431 166.008636,671.425171 175.664673,663.247437 
	C180.398636,659.238220 181.582443,655.504639 179.603668,649.476440 
	C174.725555,634.615784 170.611374,619.504272 166.199478,604.490845 
	C165.824173,603.213745 165.478775,601.924927 165.188995,600.626099 
	C164.325806,596.757324 164.016479,592.928772 167.326767,589.952698 
	C170.666183,586.950378 174.489212,587.649048 178.143768,589.148010 
	C191.086838,594.456543 203.979767,599.887390 216.891800,605.271606 
	C217.506927,605.528198 218.101379,605.881409 218.742188,606.021240 
	C221.950119,606.721252 224.946213,610.323853 228.363220,607.605530 
	C230.812881,605.656799 230.938538,596.114624 228.870529,592.982239 
	C221.324020,581.551514 216.231537,569.215149 214.448685,555.568909 
	C212.218933,538.501892 213.840714,522.035889 222.080048,506.219025 
M483.483582,546.413208 
	C482.056152,548.039612 480.509186,549.576782 479.218750,551.305481 
	C449.461700,591.169739 388.507355,592.082764 355.040375,559.784302 
	C339.791870,545.068237 332.321838,526.791626 331.040070,505.887177 
	C330.778717,501.624542 329.321686,499.885468 325.044617,500.067993 
	C319.720306,500.295227 314.379822,500.233429 309.047791,500.170044 
	C300.904358,500.073212 296.754974,496.287048 296.680664,489.040344 
	C296.609863,482.130768 301.243286,477.793335 309.001221,477.695099 
	C315.999939,477.606415 323.002075,477.595001 329.999908,477.713837 
	C333.011322,477.764954 334.810120,476.864746 336.090057,473.849762 
	C347.541229,446.875549 367.444672,429.675293 396.026428,422.791687 
	C398.607635,422.170013 399.665161,421.032562 399.696472,418.412659 
	C399.771973,412.095520 401.884399,406.319794 404.940002,400.886292 
	C409.908081,392.051971 415.606079,383.592285 417.760834,373.414185 
	C418.489716,369.971344 420.768524,367.750702 425.739471,367.193359 
	C419.378510,374.745697 422.188202,382.381775 425.784058,387.843994 
	C429.369873,393.290955 427.855804,396.348236 424.829712,399.911163 
	C421.402496,403.946411 420.125580,408.415009 419.738953,413.571899 
	C419.239471,420.234436 419.414307,420.793488 425.786865,421.617432 
	C454.445618,425.322754 475.022766,440.413116 488.181488,465.946136 
	C488.999298,467.533081 489.457855,469.397125 491.420715,470.397369 
	C495.331940,468.775085 499.148102,466.618225 503.465973,465.976959 
	C506.764526,465.487091 507.772858,463.646057 507.733002,460.446472 
	C507.606354,450.281769 507.621033,440.113007 507.767334,429.948486 
	C507.813324,426.757355 506.861176,424.169739 504.965546,421.671753 
	C498.004547,412.498749 489.915161,405.322418 477.733032,404.064850 
	C472.951202,403.571228 469.760712,399.578613 469.935730,395.068695 
	C470.116699,390.404510 472.534027,387.373505 477.379761,386.415527 
	C485.903656,384.730377 493.418030,387.756256 500.884186,391.153473 
	C502.786713,392.019165 504.389771,393.757507 506.832977,393.241577 
	C508.541779,391.207428 508.035004,388.788177 508.025330,386.530670 
	C507.996796,379.865143 507.531067,373.188263 507.793030,366.537781 
	C508.179565,356.725830 503.748535,349.661926 496.199493,344.057800 
	C492.155762,341.055817 487.808411,338.663849 483.046234,336.997498 
	C444.796448,323.613556 406.066925,324.409821 367.395752,334.205414 
	C344.813324,339.925629 335.096741,352.483978 332.504120,375.578308 
	C331.245026,386.794312 336.112915,395.363312 346.162659,401.274597 
	C349.680939,403.343994 353.803436,405.953979 353.092712,411.289337 
	C352.456818,416.063080 348.323944,420.164032 343.469818,420.915894 
	C339.815155,421.481873 336.505005,420.159973 333.514465,418.321747 
	C321.962128,411.220459 314.732239,401.112610 312.693756,387.546570 
	C312.448120,385.911896 312.519592,384.206116 310.980896,382.832550 
	C310.446533,382.930206 309.764130,382.937958 309.183777,383.185242 
	C307.962494,383.705597 306.766602,384.301758 305.609436,384.953979 
	C297.025177,389.792389 292.058105,397.530640 288.486542,406.380951 
	C286.814423,410.524445 284.808502,414.398499 279.671387,414.861511 
	C270.942444,415.648346 264.994232,421.072113 260.062531,427.401794 
	C247.583496,443.418274 245.772552,461.694702 249.961105,480.954163 
	C251.829163,489.543732 255.906937,497.128815 260.702332,504.441345 
	C264.034332,509.522247 262.326630,515.866882 257.250092,519.370789 
	C252.859619,522.401062 248.298294,521.403442 244.186356,516.500427 
	C243.670303,515.885132 243.344925,515.036377 242.315811,515.135620 
	C231.847198,528.666077 233.325562,557.673645 245.383057,572.995667 
	C245.914368,572.719482 246.499802,572.459167 247.041107,572.126953 
	C253.690048,568.046753 259.173615,568.138428 262.874969,572.404663 
	C266.346710,576.406311 265.614471,580.525269 260.094452,586.856873 
	C252.905746,595.102417 249.727783,605.000977 250.797577,615.505127 
	C252.930771,636.450378 265.805023,648.597534 285.567993,653.745972 
	C293.527893,655.819519 301.639465,655.714844 309.615479,652.694336 
	C316.004944,650.274658 317.445526,644.707092 319.640930,639.277161 
	C321.377258,634.982788 326.207458,632.882202 330.408234,633.953979 
	C335.093689,635.149353 337.057159,638.422363 337.370300,643.122742 
	C337.753815,648.880249 336.174988,654.013428 332.964264,658.671692 
	C328.173065,665.622986 321.390320,669.948547 313.805786,673.378784 
	C308.651306,675.710022 303.041565,674.964905 297.338287,676.443237 
	C301.951416,686.404480 308.654846,694.456787 316.942688,700.921021 
	C333.925995,714.167603 352.649536,718.969299 373.566345,710.931030 
	C377.646301,709.363098 379.078949,707.206543 378.233978,702.595276 
	C376.396393,692.567017 378.299164,683.064453 384.121887,674.505920 
	C386.077972,671.630676 388.644836,669.520264 392.067322,668.873291 
	C394.915649,668.334839 398.224152,668.286438 399.484253,671.419006 
	C401.135040,675.522644 402.308441,679.674622 400.413452,684.426270 
	C391.794373,706.037964 400.739471,729.935181 421.339722,740.723083 
	C434.345154,747.533691 448.214691,749.081726 462.595398,746.714783 
	C481.171509,743.657227 495.530701,734.525513 504.127472,717.400757 
	C507.710785,710.262817 508.547791,702.647156 507.410706,695.102905 
	C505.601501,694.125427 504.546448,694.792114 503.547180,695.323059 
	C497.726135,698.415771 491.456940,700.022827 484.987213,700.915588 
	C480.678314,701.510193 476.293121,701.980042 472.244904,699.869751 
	C468.149536,697.734802 465.900269,694.289246 466.949982,689.604797 
	C467.940186,685.186096 471.146576,682.952881 475.634674,682.710632 
	C477.961639,682.585022 480.302521,682.736755 482.632690,682.647522 
	C496.089752,682.132324 508.495117,669.555298 507.752594,657.424805 
	C507.572083,654.476196 506.453888,653.572083 503.559021,653.199646 
	C489.494873,651.390198 476.203735,647.193298 464.749634,638.557434 
	C457.273010,632.920471 450.697540,626.231262 445.526947,618.380066 
	C441.918945,612.901550 443.326324,605.885681 448.237091,602.293640 
	C453.844452,598.192200 459.106567,598.946167 463.977356,604.575989 
	C464.957794,605.709229 465.856140,606.913208 466.803864,608.075134 
	C475.789581,619.091614 487.216919,626.038635 501.242798,628.530518 
	C506.827972,629.522827 507.669861,628.727051 507.683624,623.054993 
	C507.708710,612.721924 506.681061,602.263306 507.939850,592.085571 
	C509.738464,577.542603 503.514526,569.433228 490.797058,563.917236 
	C481.265656,559.783142 480.183716,555.491394 484.728943,545.829285 
	C490.162781,543.612854 495.392639,544.354797 500.669525,546.596558 
	C506.260529,548.971741 507.680389,548.034058 507.699341,542.210693 
	C507.749664,526.741211 507.732086,511.271454 507.711395,495.801819 
	C507.708740,493.835999 507.942535,491.760986 506.277191,490.210571 
	C498.612518,491.093536 496.529327,493.617126 496.656311,500.970703 
	C496.756683,506.782440 496.069275,512.536438 494.939148,518.285034 
	C492.983093,528.234924 487.975006,536.902100 483.483582,546.413208 
M566.033447,331.520355 
	C556.314148,334.056000 546.872803,337.207336 538.703735,343.352814 
	C532.360962,348.124451 527.514709,353.914459 526.417969,362.025482 
	C525.255005,370.626343 525.113037,379.298981 525.494141,387.966949 
	C525.577698,389.866455 525.282898,392.028809 527.620056,393.508026 
	C529.861938,392.319061 532.139832,390.946655 534.548340,389.865204 
	C541.158813,386.896942 547.988647,384.834503 555.318115,386.535980 
	C560.436646,387.724182 563.433044,391.299072 563.227783,395.458801 
	C563.019226,399.683899 559.747925,403.535095 554.865479,404.026031 
	C545.044006,405.013580 537.857422,410.211914 531.610046,417.290375 
	C528.063416,421.308899 526.031250,425.673615 526.246704,431.298798 
	C526.597351,440.451538 526.639343,449.642303 526.208374,458.788574 
	C525.963684,463.980621 527.606812,466.517700 532.815308,466.979462 
	C534.752869,467.151276 536.901245,467.725708 538.463928,468.817352 
	C542.890015,471.909424 544.633789,469.760406 546.612793,465.799225 
	C553.083740,452.846405 562.715637,442.609161 574.745728,434.618256 
	C585.478210,427.489319 597.323181,423.351318 610.061890,421.660889 
	C612.028870,421.399872 614.864502,421.242218 614.382751,418.663910 
	C613.341553,413.092682 614.668823,407.091187 610.335938,402.046387 
	C604.155334,394.850250 600.420593,386.271637 599.072510,376.820190 
	C598.137329,370.263641 602.141846,366.238007 608.724915,366.686584 
	C612.934387,366.973419 614.795959,369.626587 615.761963,373.311737 
	C617.845398,381.259735 620.354492,389.294525 625.730530,395.451050 
	C631.384155,401.925507 633.601929,409.205688 634.220764,417.268799 
	C634.466370,420.469025 635.583923,421.929016 638.722595,422.720337 
	C666.681335,429.769073 686.908997,446.140503 698.180054,472.920044 
	C699.732727,476.609070 701.725403,477.950562 705.656738,477.766693 
	C712.142395,477.463348 718.653687,477.599518 725.151855,477.700592 
	C732.741394,477.818573 737.430481,482.027313 737.465942,488.545654 
	C737.503723,495.490784 733.043091,499.763763 725.227783,500.032532 
	C720.733643,500.187073 716.229553,500.038361 711.730164,500.062195 
	C703.505737,500.105743 703.730164,500.128357 703.305237,508.438721 
	C702.309631,527.908813 694.741272,544.744995 681.020325,558.365723 
	C663.433350,575.824219 641.907654,583.196228 617.045227,582.496887 
	C574.602173,581.303162 536.683044,544.091248 538.577332,502.063599 
	C538.904663,494.800903 534.518372,490.745697 526.903076,490.400055 
	C526.903076,509.721863 526.903076,529.043945 526.903076,548.628723 
	C531.863342,547.805908 535.350159,544.697266 539.735901,544.339478 
	C544.305481,543.966675 548.449463,544.448242 550.481812,549.471619 
	C552.217651,553.762146 550.906677,558.230103 546.712891,561.325195 
	C545.114380,562.504883 543.311401,563.420105 541.555969,564.371826 
	C537.738098,566.441772 534.139404,568.805847 530.734436,571.523926 
	C527.626465,574.004944 526.215881,576.905029 526.270447,580.976196 
	C526.453369,594.640015 526.346008,608.307678 526.347473,621.973877 
	C526.348206,629.211731 527.377380,629.882507 534.553894,628.158997 
	C548.917480,624.709412 560.330078,616.998596 569.227600,605.224670 
	C574.011902,598.893555 580.070496,597.996765 585.781616,602.128601 
	C591.379822,606.178772 592.423157,613.196167 587.877502,619.331360 
	C578.582947,631.875977 567.176208,641.804626 552.340942,647.473877 
	C545.450928,650.106934 538.387939,651.885803 531.164001,653.180359 
	C529.344482,653.506348 527.115356,653.850037 526.772644,655.909241 
	C526.037170,660.328430 525.350830,664.937195 528.456482,668.855957 
	C535.766724,678.080078 544.406433,684.339539 557.142883,682.182190 
	C561.630432,681.422058 566.096069,684.797424 567.104187,688.811523 
	C568.261841,693.420959 566.411987,697.171692 561.817627,699.468689 
	C559.233459,700.760803 556.458008,701.235840 553.594604,701.303650 
	C546.108887,701.480774 539.096497,699.559265 532.318420,696.553955 
	C530.578613,695.782593 528.941162,694.256287 526.835510,695.492981 
	C524.528503,708.304749 528.627197,720.427124 539.230103,730.754517 
	C556.329224,747.409668 577.138855,750.976074 599.460510,745.837524 
	C630.882568,738.603943 643.717834,708.503174 633.211914,684.180054 
	C632.367432,682.224854 631.902954,680.034729 631.651978,677.907715 
	C631.018066,672.534241 634.160828,669.079163 639.612671,668.674744 
	C645.377625,668.247131 648.555603,671.939880 651.039062,676.157593 
	C655.943665,684.487244 657.709473,693.609619 655.695923,703.092163 
	C654.726929,707.655518 656.181763,709.901978 660.240723,711.507690 
	C670.339050,715.502441 680.798401,715.933228 691.186707,713.887146 
	C708.820801,710.413879 721.766724,699.724365 731.908508,685.372742 
	C736.604004,678.728027 738.225525,677.115662 727.780212,674.991455 
	C713.120300,672.010315 701.758606,664.130249 697.252502,648.792664 
	C696.676697,646.832764 696.570068,644.842468 696.860840,642.852234 
	C697.612305,637.707764 700.928101,634.230408 705.416260,633.769104 
	C709.927979,633.305420 713.950256,635.872437 715.334961,641.059387 
	C717.821472,650.373779 724.141724,654.051270 733.179260,654.905029 
	C737.383057,655.302185 741.478271,655.044250 745.602966,654.660278 
	C762.768860,653.062317 779.755249,638.084839 782.954407,621.132935 
	C785.456543,607.874512 782.205383,596.004639 772.353394,586.370911 
	C769.141296,583.230042 768.164551,579.785034 769.770203,575.506653 
	C771.333069,571.342468 774.709595,569.607788 778.623474,569.179871 
	C782.588806,568.746338 785.774963,571.336304 788.917053,573.347900 
	C800.942566,559.195740 802.178955,525.994507 791.168030,514.587402 
	C789.210510,515.071838 788.624146,517.029968 787.407288,518.308594 
	C784.122192,521.760559 779.159424,522.171448 775.708862,519.259094 
	C771.243103,515.489807 769.916687,509.166962 773.328918,504.397400 
	C780.312195,494.636475 784.182983,483.791931 785.266602,471.982208 
	C786.590515,457.552887 784.619995,443.613525 776.511414,431.271210 
	C771.808838,424.113373 765.989868,417.181946 757.189819,415.641235 
	C750.622498,414.491455 747.540955,411.309601 745.812988,405.586884 
	C743.118469,396.663147 737.334351,390.206299 729.378540,385.663330 
	C722.650757,381.821564 721.521545,382.466309 720.254456,390.215607 
	C717.974731,404.158112 705.534180,418.229492 693.582764,420.383789 
	C687.324646,421.511902 682.658020,418.851440 681.153564,413.298126 
	C679.931641,408.787323 683.153381,402.252930 688.208801,400.972809 
	C696.186218,398.952698 699.192505,393.144470 700.373047,386.158295 
	C701.367065,380.275513 701.321411,374.198364 700.213806,368.242188 
	C696.890015,350.367645 684.518860,341.100037 668.586975,335.480499 
	C653.701111,330.229828 638.127747,328.488556 622.498779,327.357025 
	C603.771729,326.001160 585.231201,327.629700 566.033447,331.520355 
M553.938538,285.371063 
	C553.285461,263.730988 552.638672,242.090683 551.975342,220.450912 
	C551.787537,214.325089 550.067505,212.663879 543.770752,212.300919 
	C539.949585,212.080658 536.136475,211.685837 532.313232,211.538391 
	C515.148621,210.876434 498.021667,211.497665 480.964325,213.502426 
	C475.911530,214.096298 474.896240,216.794357 477.707458,221.148941 
	C478.596619,222.526215 480.298126,224.006989 479.020538,225.558975 
	C476.952606,228.071045 478.549133,229.833069 479.551270,231.881073 
	C481.306488,235.468292 483.020996,239.076370 484.691132,242.703995 
	C485.938385,245.413086 486.361359,248.306717 484.570709,250.828720 
	C481.917542,254.565598 479.804108,258.139618 485.492279,262.779572 
	C464.158264,258.855194 453.774200,246.039886 448.189240,226.981400 
	C443.489899,246.131409 431.997772,258.057983 413.549316,264.020935 
	C431.890259,268.003510 442.588104,279.256287 448.432556,297.065704 
	C449.631012,294.039551 450.187744,292.497192 450.844421,290.998657 
	C454.299133,283.114471 458.437500,275.770203 466.304596,271.340088 
	C469.439514,269.574768 470.919189,269.739746 472.254578,273.842987 
	C475.080109,282.525085 472.773682,289.295929 466.887939,295.738678 
	C461.808624,301.298737 464.007904,307.653290 471.271667,309.490173 
	C486.547455,313.353119 501.326843,318.306610 513.753601,328.531769 
	C514.370422,329.039276 515.157593,329.472198 516.154541,328.890076 
	C517.382690,327.405457 517.010925,325.510132 517.017517,323.729614 
	C517.042664,316.899811 516.994812,310.069763 516.973877,303.239807 
	C516.967163,301.061798 517.058716,298.893280 518.055115,296.894684 
	C518.869202,295.261780 519.568237,293.397491 521.780579,293.288086 
	C523.997437,293.178436 524.930542,294.874146 525.777466,296.531250 
	C527.083191,299.086182 527.801392,301.809357 527.959717,304.678955 
	C528.062683,306.543976 528.460083,308.317322 529.739014,309.767273 
	C532.405518,312.790344 541.975281,314.276337 546.883850,312.441711 
	C551.300476,310.790985 554.790161,305.750458 554.676392,300.794403 
	C554.565552,295.971191 554.206482,291.153717 553.938538,285.371063 
M374.611023,543.886536 
	C388.249664,555.313171 403.973999,559.430237 421.563873,557.823242 
	C458.012238,554.493591 481.874115,515.741638 468.732239,481.670349 
	C460.670044,460.768616 437.833710,443.888977 412.141846,445.043304 
	C388.751801,446.094177 367.912933,459.912170 359.494202,481.580017 
	C350.665497,504.302917 355.900726,526.545654 374.611023,543.886536 
M664.201721,464.307373 
	C648.648071,448.703857 630.143677,441.896210 608.289246,446.414612 
	C578.821106,452.507111 559.311951,480.447083 563.124817,508.959747 
	C567.728455,543.386719 603.557922,564.414490 634.830322,556.999634 
	C678.387024,546.672180 693.731018,498.846619 664.201721,464.307373 
M631.849792,783.639832 
	C628.664551,780.706726 625.480469,777.772400 622.293762,774.840881 
	C615.237488,768.349670 602.677002,767.401978 594.771240,772.762573 
	C591.138794,775.225708 590.473267,778.629700 593.895447,780.755615 
	C598.995605,783.923706 600.173584,788.453735 600.482300,793.834290 
	C600.700623,797.639343 601.483948,801.408386 601.891174,805.206848 
	C603.077087,816.269348 604.231812,827.335510 605.321777,838.407837 
	C605.532471,840.548523 605.463440,842.621582 603.701233,844.428406 
	C601.656616,846.524841 598.993774,848.846863 601.191711,852.183289 
	C603.245850,855.301453 606.663635,855.725098 610.104675,855.363342 
	C614.900635,854.859131 619.687683,854.256409 624.466309,853.606140 
	C627.613953,853.177917 630.761963,852.530212 633.301270,850.478699 
	C635.908264,848.372437 636.886292,845.410583 633.858643,843.355957 
	C628.784546,839.912781 627.783752,834.983032 627.260193,829.563171 
	C626.566772,822.384094 624.648071,815.302856 625.045166,808.134277 
	C628.101379,807.145081 629.156860,809.231079 630.523193,810.525330 
	C641.040222,820.487366 651.807129,830.209045 661.913330,840.573853 
	C669.280090,848.129089 677.121826,845.638916 683.982056,841.416870 
	C688.352600,838.727051 688.615051,835.584839 685.812195,831.280884 
	C684.703247,829.577942 683.940247,827.834045 683.629700,825.786194 
	C681.388550,811.004517 679.052429,796.237244 676.765930,781.462402 
	C675.954346,776.217773 674.946960,771.151001 678.647217,766.196838 
	C680.860229,763.234009 678.470764,759.557922 674.338013,759.269104 
	C665.917786,758.680725 657.690247,760.104431 649.998352,763.531555 
	C645.208496,765.665710 645.000977,769.732483 649.383850,772.589844 
	C652.499939,774.621399 653.828369,777.319580 654.321228,780.777710 
	C654.836121,784.390869 655.854248,787.967285 656.012451,791.587708 
	C656.216003,796.243103 658.384644,800.839233 656.892151,805.776794 
	C656.098511,805.434204 655.561340,805.343933 655.223083,805.035522 
	C647.593933,798.080200 639.986633,791.100891 631.849792,783.639832 
M329.663757,802.825073 
	C329.708160,796.530762 325.157562,792.066528 322.655853,786.860474 
	C337.042358,779.134766 341.138397,768.474304 334.914917,756.105774 
	C331.755157,749.826111 326.407684,745.951904 320.265228,743.120300 
	C313.005188,739.773560 305.325928,737.523254 297.700409,735.179260 
	C291.828369,733.374268 286.118835,730.897034 279.956879,730.207214 
	C273.374786,729.470276 270.482422,732.506836 271.237427,738.961121 
	C271.451141,740.788208 271.262024,742.571960 270.670776,744.366882 
	C265.263306,760.782532 259.920380,777.219421 254.536743,793.642944 
	C253.971344,795.367859 253.399216,797.055176 251.837463,798.294922 
	C245.474792,803.345520 245.682114,807.128174 253.219360,810.311829 
	C268.387573,816.718628 283.760864,822.763245 299.899109,826.262207 
	C317.423126,830.061829 329.477783,820.659607 329.663757,802.825073 
M400.306244,840.298523 
	C401.829529,850.280945 408.602112,853.501465 417.664001,853.776978 
	C419.162170,853.822510 420.659515,853.914062 422.157837,853.931335 
	C425.160614,853.965942 427.818359,853.195374 429.320953,850.324402 
	C430.818054,847.463867 428.589447,845.723145 427.219910,843.689880 
	C422.199493,836.236450 418.918488,827.988892 415.692474,819.540955 
	C417.539673,818.583801 418.816132,817.806763 420.178711,817.234924 
	C429.785950,813.202942 433.793549,805.224243 434.559723,795.578003 
	C435.384644,785.191467 431.603973,776.754517 422.290558,771.127319 
	C416.004944,767.329468 409.075897,765.787781 402.047729,764.401978 
	C390.960297,762.215820 379.870941,760.039124 368.777557,757.883423 
	C365.382111,757.223572 362.445374,758.208557 360.335175,760.923950 
	C358.239532,763.620728 360.561279,765.601685 361.904480,767.570312 
	C363.993469,770.631958 363.757904,774.051514 363.056000,777.228394 
	C359.613647,792.808044 355.901978,808.328247 352.299896,823.872742 
	C351.660461,826.632080 350.253876,828.466858 347.502716,829.731567 
	C342.426544,832.065002 342.052094,836.590332 347.006439,839.027466 
	C354.975372,842.947632 363.662201,844.868164 372.571991,844.734558 
	C377.209412,844.665039 378.844818,840.920776 376.320496,837.067810 
	C375.019287,835.081604 373.582855,833.207214 374.075867,830.682983 
	C374.872009,826.606934 375.803131,822.557373 376.625885,818.486267 
	C376.906158,817.099304 377.297333,815.994324 378.931976,815.647827 
	C383.908508,814.593262 391.833344,818.395020 393.860046,823.231689 
	C396.109406,828.599670 398.006104,834.115356 400.306244,840.298523 
M507.686707,793.687195 
	C506.423706,790.428162 505.037964,787.210388 503.923401,783.901367 
	C501.658966,777.178345 497.380829,773.669128 490.006897,773.184509 
	C481.700897,772.638611 475.788116,774.452698 471.995636,782.872375 
	C463.727081,801.229065 454.665497,819.228760 445.913208,837.367188 
	C444.391083,840.521729 442.783844,843.621826 439.971588,845.897400 
	C437.982788,847.506653 436.172241,849.216064 437.056641,852.208557 
	C437.920074,855.130066 439.992920,856.533813 442.839081,857.004089 
	C444.637451,857.301208 446.450775,857.506470 448.253906,857.776306 
	C459.023071,859.387451 461.356842,861.028381 466.620575,847.647461 
	C467.762787,844.743835 469.563568,843.655029 472.736664,843.873535 
	C479.707886,844.353577 486.700684,844.576477 493.688507,844.744080 
	C501.821838,844.939209 501.775848,844.884094 504.787628,852.416504 
	C506.009247,855.471680 506.778961,859.491272 510.327332,860.277344 
	C516.832397,861.718323 523.670959,862.080261 529.980469,859.586609 
	C535.442078,857.427917 535.796875,853.602966 531.395752,849.771729 
	C529.035278,847.716858 527.602478,845.218872 526.509155,842.379211 
	C520.349487,826.380249 514.150513,810.396362 507.686707,793.687195 
M757.009033,280.800598 
	C754.716309,276.046936 755.839417,270.968018 755.650452,266.023987 
	C755.438965,260.489044 754.335693,259.265503 749.058289,260.476044 
	C731.709229,264.455658 714.410767,268.655273 697.084106,272.733032 
	C694.079224,273.440216 693.346252,274.855713 693.818909,278.097565 
	C695.591492,290.256042 696.614197,302.527313 698.531799,314.659302 
	C699.272278,319.343903 697.963440,324.572144 702.318115,328.647247 
	C710.605103,336.402374 716.408325,345.864319 719.708252,356.800995 
	C720.124878,358.181885 720.251343,359.958008 721.901978,360.528839 
	C727.616821,362.505066 733.370361,364.369324 739.856812,366.524628 
	C739.856812,363.448029 739.862305,361.145355 739.855835,358.842743 
	C739.818848,345.682709 739.707031,332.522400 739.760193,319.362762 
	C739.814819,305.853088 744.355103,294.291870 754.938416,285.450226 
	C756.155334,284.433533 757.894531,283.621948 757.009033,280.800598 
M761.586365,804.620789 
	C759.579773,797.992188 756.421875,791.501343 759.012817,784.299683 
	C764.478210,769.108521 769.298035,753.675415 775.893799,738.906921 
	C778.016418,734.154175 777.195129,732.094116 772.220947,730.342896 
	C764.994934,727.798889 754.579956,732.626892 752.125854,739.886475 
	C749.301147,748.242493 746.768311,756.696777 744.042480,765.086792 
	C741.846069,771.847412 740.446777,772.260254 734.798950,767.741150 
	C729.596497,763.578430 724.495544,759.289062 719.338806,755.069092 
	C710.690430,747.991638 699.270813,748.355408 690.963379,755.960327 
	C687.220642,759.386597 687.679749,762.566528 692.492432,764.767517 
	C696.756958,766.717773 700.861572,768.891113 704.596375,771.721924 
	C712.960510,778.061584 721.020996,784.850281 729.724548,790.680725 
	C739.410156,797.168945 739.930908,806.613708 739.390076,816.515564 
	C739.154480,820.828186 740.330200,823.968628 744.472839,823.986877 
	C752.565491,824.022583 760.414551,822.387512 766.714783,816.735107 
	C769.495117,814.240601 769.655518,811.502625 765.973999,809.525085 
	C764.125305,808.532043 762.743103,807.214600 761.586365,804.620789 
M551.177856,828.592590 
	C551.217407,831.754944 551.176514,834.920898 551.315430,838.078857 
	C551.524841,842.838501 550.747681,846.962952 545.973450,849.482178 
	C543.738647,850.661377 542.777588,852.965759 543.585449,855.493469 
	C544.499390,858.352722 546.778748,859.771606 549.680054,859.798096 
	C559.164124,859.884705 568.660950,860.004944 578.089539,858.725586 
	C581.444885,858.270325 584.347046,856.586365 584.973267,853.112854 
	C585.573608,849.782959 582.886597,847.969849 580.197876,846.927246 
	C576.335083,845.429321 574.974609,842.471191 574.791321,838.762878 
	C574.044128,823.647034 573.416443,808.525269 572.662170,793.409790 
	C572.461182,789.381592 573.544617,786.298340 577.415894,784.390442 
	C579.593323,783.317444 581.136536,781.432068 580.788757,778.764771 
	C580.410706,775.865601 578.187988,774.198730 575.690063,773.970520 
	C565.730835,773.060669 555.706116,773.315613 546.011841,775.732605 
	C540.723755,777.051147 540.144348,782.531372 544.795715,785.321411 
	C549.172180,787.946716 550.256165,791.605835 550.306763,796.199097 
	C550.422058,806.677551 550.041138,817.171814 551.177856,828.592590 
M241.658524,694.856079 
	C232.654480,688.706116 223.650436,682.556213 213.915115,675.906799 
	C212.283432,686.999023 214.746902,696.867065 214.664383,706.835815 
	C215.984360,704.760315 216.868835,702.622559 217.852768,700.531494 
	C218.843597,698.425903 219.842041,696.314514 220.997299,694.297424 
	C224.106018,688.869812 229.413208,688.907959 232.711166,694.414795 
	C233.534790,695.790039 233.939514,697.416077 234.774612,699.528442 
	C228.564621,700.628418 225.932510,705.146912 223.427551,709.974304 
	C220.386932,715.833862 219.538361,722.337463 217.594147,728.509277 
	C210.596741,750.722412 203.929749,773.039551 197.128601,795.314575 
	C196.293365,798.050171 195.788727,800.839294 196.151077,803.682861 
	C196.496597,806.394592 198.137131,808.261292 200.685028,809.153015 
	C203.270721,810.058105 204.623123,808.095886 206.104889,806.525513 
	C208.129425,804.379944 208.882324,801.623230 209.716354,798.929993 
	C217.343475,774.301575 224.737610,749.598328 232.649109,725.061829 
	C235.688828,715.634583 235.457977,704.277893 246.425842,699.346191 
	C245.671371,696.695618 243.687210,696.274170 241.658524,694.856079 
M251.523636,224.111664 
	C246.730713,225.697861 241.937790,227.284073 236.809387,228.981308 
	C241.266113,232.123550 244.985245,231.279541 249.418610,229.799164 
	C266.145294,224.213882 283.099396,219.313080 299.938599,214.060593 
	C327.739807,205.388870 355.504242,196.599258 383.308868,187.938614 
	C426.529541,174.476135 469.766235,161.064987 513.013245,147.687439 
	C516.160156,146.714005 517.576599,145.240829 515.711609,141.396698 
	C427.876129,168.882477 340.071228,196.358673 251.523636,224.111664 
M818.939636,710.641907 
	C816.390381,706.210571 811.253723,702.995239 808.661255,704.664734 
	C804.446106,707.379211 805.541870,711.506409 806.590271,715.445435 
	C806.632996,715.605896 806.709473,715.757080 806.757141,715.916382 
	C814.722351,742.539490 822.662354,769.170166 830.681213,795.777100 
	C831.684509,799.105835 832.489502,802.566345 834.559509,805.475525 
	C836.467651,808.157166 838.437500,808.518494 841.195496,806.208801 
	C845.702637,802.434631 845.453064,797.858459 844.016235,793.030945 
	C839.221375,776.921326 834.346985,760.835205 829.466431,744.751160 
	C826.083862,733.604004 822.640930,722.475159 818.939636,710.641907 
M759.094788,334.500061 
	C759.080017,348.985168 759.056030,363.470276 759.063354,377.955383 
	C759.064148,379.614502 759.065308,381.306732 759.373169,382.925262 
	C759.908447,385.738861 761.887024,387.439514 764.634888,387.255005 
	C767.878723,387.037170 766.947632,384.371063 766.918701,382.250732 
	C766.630493,361.120972 766.039856,339.991180 766.735229,318.859009 
	C766.868530,314.807831 767.975525,310.975464 769.728638,307.346130 
	C770.505188,305.738617 771.197388,303.890869 773.788330,303.902679 
	C775.707642,306.463928 775.900208,309.586304 776.148438,312.713959 
	C776.524048,317.447205 777.632385,321.943604 780.969238,325.555206 
	C785.931458,330.926239 793.252258,329.365967 795.291016,322.423248 
	C796.177734,319.403687 796.516968,316.227753 797.242676,313.155426 
	C798.577942,307.502686 797.015015,305.073334 792.164062,301.176941 
	C789.608521,299.124298 786.575317,301.749786 784.703430,299.203796 
	C782.798462,296.612915 780.638000,295.916656 777.938293,298.019531 
	C777.408447,298.432281 776.611938,298.920502 776.165588,298.316193 
	C773.621277,294.871338 771.340881,297.676849 769.434204,298.835266 
	C763.067261,302.703278 759.319702,308.352356 759.205139,316.020264 
	C759.118164,321.846130 759.126526,327.673462 759.094788,334.500061 
M375.457886,270.202972 
	C378.540924,262.610596 383.486877,256.488647 389.996124,251.548050 
	C400.400543,243.650986 412.178345,238.465363 424.337250,233.949768 
	C406.762848,237.678253 389.631470,242.807465 372.756989,248.909119 
	C368.756256,250.355743 366.961456,252.519928 366.334351,256.606049 
	C364.598938,267.913666 362.352448,279.143982 360.680481,290.459869 
	C359.561310,298.034393 357.900482,305.594635 358.013123,313.423218 
	C366.631500,312.109161 366.608246,311.992188 367.774323,304.439178 
	C369.522308,293.116913 371.384674,281.806915 375.457886,270.202972 
M785.751892,253.178650 
	C785.743591,246.194260 785.727234,239.209885 785.730652,232.225494 
	C785.732117,229.268097 784.975098,226.628204 782.644958,224.634506 
	C781.129150,223.337585 779.624878,221.820572 777.364380,222.793091 
	C775.122925,223.757416 774.247559,225.598740 774.249695,227.996201 
	C774.262085,241.964691 774.226929,255.933273 774.249878,269.901733 
	C774.253479,272.101410 774.738892,274.143341 777.354492,275.214203 
	C779.681091,270.835541 780.213623,265.796570 783.227295,261.967896 
	C785.094360,259.595917 785.806458,257.000031 785.751892,253.178650 
M784.814026,373.288940 
	C783.129333,374.000610 781.428406,374.676453 779.763184,375.431183 
	C775.950439,377.159149 777.290527,380.833557 776.687012,383.760620 
	C776.288208,385.695282 777.763062,386.498901 779.138428,387.008026 
	C781.901794,388.030792 784.173645,386.541962 785.704529,384.619324 
	C787.878723,381.888641 789.627136,382.241180 791.812622,384.383575 
	C793.508606,386.046143 796.074585,388.040405 797.769470,385.817535 
	C799.794312,383.161926 802.437683,379.794983 799.732239,375.891144 
	C796.951721,371.879150 796.015198,367.532898 796.487122,362.662231 
	C796.705017,360.413452 796.105225,358.025116 795.550903,355.780365 
	C795.084351,353.890625 794.408936,351.452240 791.871399,351.861115 
	C789.538574,352.236969 789.316711,354.644592 789.119385,356.646881 
	C788.869568,359.182861 789.713501,361.571411 790.228027,364.008728 
	C791.127136,368.268524 790.043274,371.568268 784.814026,373.288940 
M774.402649,682.852112 
	C788.176636,677.558655 801.419922,671.149658 814.365540,664.105896 
	C798.380737,669.195923 782.108154,673.374390 766.845581,680.437012 
	C763.917480,681.791931 760.844788,683.028320 758.838562,686.522644 
	C764.655029,687.303772 768.930298,684.199463 774.402649,682.852112 
M270.939087,680.497070 
	C256.729309,674.054199 241.813583,669.727905 226.809921,665.654846 
	C242.546600,673.902039 258.750671,680.977905 276.050110,686.985718 
	C275.610046,683.177734 273.724274,681.900879 270.939087,680.497070 
M662.850586,273.449707 
	C664.096741,275.624817 664.816162,278.181305 667.121216,279.990906 
	C668.804810,276.580719 670.403076,273.699707 669.643677,270.132935 
	C668.640869,265.423218 667.763855,260.686340 666.864929,255.955002 
	C666.365601,253.327225 665.178528,250.508270 662.411560,250.840942 
	C659.293152,251.215836 658.716370,254.355453 659.254028,257.168488 
	C660.249451,262.375977 661.461975,267.541962 662.850586,273.449707 
M801.026917,695.448059 
	C805.410522,693.383545 809.548828,690.830383 813.110901,687.614685 
	C816.181213,684.843018 817.828003,685.880432 819.763000,688.707764 
	C821.248718,690.878662 821.942993,693.691528 824.637573,695.557922 
	C824.988220,688.928223 824.209595,682.972839 822.980652,676.381348 
	C813.415833,684.299988 802.705750,689.581360 793.268311,698.832153 
	C796.918945,698.278992 798.521851,696.741699 801.026917,695.448059 
M515.853455,745.013672 
	C517.093384,744.911682 518.554199,745.332458 519.142578,743.653809 
	C516.398010,741.261230 515.645569,741.021606 514.393860,742.384888 
	C513.308777,743.566833 513.748596,744.448547 515.853455,745.013672 
z"/>
<path fill="#000000" opacity="1.000000" stroke="none" 
	d="
M694.285034,589.970459 
	C688.340027,586.477478 683.821533,582.279724 682.299194,575.595337 
	C681.223389,570.871826 683.287048,566.369141 687.505676,564.378357 
	C691.473755,562.505859 696.809692,563.379578 698.968201,567.378418 
	C703.538818,575.846008 711.307190,575.597534 718.441528,570.447266 
	C722.740417,567.343933 725.968445,567.802551 729.070007,571.401794 
	C731.512207,574.235779 734.146423,575.391907 738.129578,574.005371 
	C732.933533,580.060059 728.994873,587.015259 721.518188,590.528870 
	C712.488037,594.772461 703.524719,594.345947 694.285034,589.970459 
z"/>
<path fill="#000000" opacity="1.000000" stroke="none" 
	d="
M294.120575,569.113037 
	C300.228394,572.547119 301.408234,572.356567 304.825500,566.262939 
	C306.800598,562.740906 308.648895,562.529236 311.223602,565.451660 
	C312.650085,567.070801 314.053986,568.752014 315.699615,570.128296 
	C321.492767,574.973328 330.637573,575.377991 334.722687,568.199768 
	C337.899109,562.618225 342.986877,561.663269 347.434845,564.397522 
	C351.719879,567.031616 353.393311,572.909363 350.809662,578.094360 
	C346.400757,586.942322 338.896057,591.966980 329.256531,593.161926 
	C319.022980,594.430603 309.851807,592.301331 303.097656,583.351868 
	C300.463745,579.861755 296.058838,577.766235 294.568604,573.237976 
	C294.133301,571.915222 292.703583,570.749207 294.120575,569.113037 
z"/>
<path fill="#000000" opacity="1.000000" stroke="none" 
	d="
M270.074860,514.466064 
	C269.229431,513.962463 268.643250,513.651123 267.327728,512.952332 
	C271.204193,511.048950 273.833679,513.030090 276.473938,512.739258 
	C279.348511,512.422607 280.725067,509.640808 283.679138,508.823730 
	C285.275970,512.495972 289.019897,514.198242 291.552277,517.122131 
	C292.301117,517.986755 293.603638,519.022522 293.513275,519.856384 
	C292.972107,524.849487 288.797668,526.709290 285.001831,528.497620 
	C282.359344,529.742554 279.128876,531.699707 276.936859,527.362488 
	C275.604584,524.726379 273.670746,522.410461 273.803253,519.164185 
	C273.897369,516.857910 271.953918,515.810913 270.074860,514.466064 
z"/>
<path fill="#000000" opacity="1.000000" stroke="none" 
	d="
M451.645020,499.610229 
	C458.322601,516.713989 450.576996,533.559387 433.206024,540.415222 
	C418.965698,546.035522 400.636780,538.039429 394.800171,523.127991 
	C388.810272,507.824890 393.933380,490.056885 411.098358,482.765900 
	C426.719269,476.130829 444.563812,483.422943 451.645020,499.610229 
M400.042938,503.535095 
	C401.718781,507.838684 404.530090,510.507538 409.475861,509.713959 
	C413.446198,509.076904 416.148071,506.880157 416.810120,502.739716 
	C417.399597,499.052948 416.501892,495.813538 413.388397,493.483093 
	C410.818451,491.559479 408.022125,490.851593 405.075165,492.587585 
	C401.184052,494.879852 399.170990,498.212341 400.042938,503.535095 
z"/>
<path fill="#000000" opacity="1.000000" stroke="none" 
	d="
M637.601257,494.546204 
	C647.020203,510.889648 641.898254,529.977905 626.168640,538.239502 
	C610.222351,546.614929 591.605347,540.724243 583.656494,524.788086 
	C573.583618,504.593658 588.223816,480.951447 610.789612,480.594635 
	C622.261841,480.413239 631.103088,484.661469 637.601257,494.546204 
M592.698181,493.188629 
	C590.600159,494.887024 588.780212,496.796631 588.404968,499.617737 
	C587.832642,503.920349 589.649597,507.189972 593.429443,508.969482 
	C597.412537,510.844666 601.347534,510.173126 604.142273,506.590698 
	C606.893921,503.063477 606.750000,499.000153 604.199219,495.521820 
	C601.499939,491.841034 597.746521,490.463318 592.698181,493.188629 
z"/>
<path fill="#000000" opacity="1.000000" stroke="none" 
	d="
M282.085114,785.248535 
	C288.493042,787.127441 294.557404,788.900085 300.528564,790.944885 
	C303.608002,791.999451 306.122528,794.007812 307.073822,797.327332 
	C308.520966,802.376953 304.533264,807.301392 299.183380,806.715820 
	C292.025604,805.932434 285.335266,803.274536 278.633240,800.780273 
	C277.084259,800.203796 275.939178,799.146179 276.520538,797.368958 
	C277.889008,793.185120 278.251709,788.551636 282.085114,785.248535 
z"/>
<path fill="#000000" opacity="1.000000" stroke="none" 
	d="
M288.948944,759.158813 
	C289.841522,753.946899 292.134003,752.532654 296.978149,754.421204 
	C301.424530,756.154602 306.259857,756.923462 310.413574,759.443787 
	C313.602570,761.378784 315.864716,763.951111 314.443390,768.029541 
	C313.083313,771.932190 310.345612,773.981323 306.067383,773.385254 
	C300.300140,772.581665 294.879852,770.494629 289.375427,768.731445 
	C287.426697,768.107239 286.933167,766.740051 287.493591,764.821838 
	C288.003265,763.077332 288.385895,761.295715 288.948944,759.158813 
z"/>
<path fill="#000000" opacity="1.000000" stroke="none" 
	d="
M384.956604,798.253662 
	C383.363495,797.901733 381.930603,797.442383 382.029358,796.146545 
	C382.421661,790.998840 383.520020,785.958130 385.190704,781.071716 
	C385.634247,779.774475 386.999207,779.672791 388.191589,779.938110 
	C393.706573,781.165161 399.312012,782.117981 404.688965,783.796936 
	C410.454071,785.597168 412.643219,789.807251 411.293640,794.945923 
	C410.159149,799.265442 405.493500,801.897095 400.094055,801.037231 
	C395.168152,800.252747 390.278625,799.240051 384.956604,798.253662 
z"/>
<path fill="#000000" opacity="1.000000" stroke="none" 
	d="
M477.007751,823.426025 
	C479.965912,816.403870 482.351776,809.548462 486.931519,801.945312 
	C491.370972,810.369019 493.999451,818.056885 496.013000,826.949768 
	C489.719727,827.548767 484.060333,827.516785 478.399109,826.511292 
	C476.940552,826.252197 476.758850,825.077576 477.007751,823.426025 
z"/>
</svg>